<?xml version="1.0" standalone="no"?>
<!DOCTYPE svg PUBLIC "-//W3C//DTD SVG 20010904//EN"
 "http://www.w3.org/TR/2001/REC-SVG-20010904/DTD/svg10.dtd">
<svg version="1.0" xmlns="http://www.w3.org/2000/svg"
 width="512.000000pt" height="512.000000pt" viewBox="0 0 512.000000 512.000000"
 preserveAspectRatio="xMidYMid meet">
<metadata>
Created by potrace 1.14, written by Peter Selinger 2001-2017
</metadata>
<g transform="translate(0.000000,512.000000) scale(0.100000,-0.100000)"
fill="#000000" stroke="none">
<path d="M2369 5116 c-2 -2 -35 -6 -72 -10 -742 -70 -1440 -491 -1868 -1127
-211 -314 -354 -690 -404 -1059 -16 -117 -20 -186 -19 -370 0 -249 10 -344 58
-565 105 -487 399 -981 793 -1337 303 -274 701 -481 1108 -577 114 -27 138
-32 245 -47 25 -3 56 -8 70 -10 14 -3 120 -6 235 -8 220 -4 347 6 542 43 364
70 742 240 1050 473 102 77 123 100 123 136 0 30 -42 72 -72 72 -14 0 -71 -36
-138 -86 -218 -163 -434 -278 -689 -365 -94 -32 -116 -36 -87 -14 71 54 212
206 295 318 108 147 246 408 316 599 10 26 23 52 29 57 6 5 58 28 116 51 210
83 448 220 620 357 75 60 215 197 232 227 5 9 13 16 17 16 9 0 -34 -130 -84
-255 -89 -225 -266 -502 -447 -702 -45 -50 -49 -83 -13 -118 43 -43 74 -34
144 42 217 233 419 584 525 908 43 133 89 334 102 450 3 28 8 61 10 75 3 14 7
115 9 225 4 285 -15 450 -80 700 -235 892 -943 1595 -1840 1825 -66 17 -135
33 -155 36 -19 3 -46 7 -60 9 -26 4 -65 10 -135 21 -44 6 -470 15 -476 10z
m316 -157 c90 -15 181 -46 271 -94 108 -57 181 -111 290 -218 51 -49 97 -93
104 -97 17 -11 56 0 79 21 33 31 27 72 -16 121 -39 43 -129 130 -173 167 l-25
21 55 -16 c87 -25 276 -102 382 -156 503 -257 922 -708 1131 -1218 54 -131 97
-260 86 -260 -5 0 -9 4 -9 8 0 12 -184 192 -250 245 -155 124 -468 299 -657
367 -35 12 -67 28 -72 34 -5 6 -25 54 -46 106 -53 135 -184 387 -222 428 -27
28 -37 33 -60 28 -38 -9 -73 -50 -68 -79 3 -12 31 -71 64 -130 59 -105 145
-287 139 -292 -2 -2 -63 12 -135 30 -73 19 -148 36 -165 39 -18 3 -69 12 -113
20 -74 14 -172 28 -285 41 -210 23 -660 23 -855 0 -16 -2 -55 -7 -85 -10 -30
-3 -84 -11 -120 -16 -36 -6 -78 -13 -95 -16 -58 -9 -301 -63 -349 -78 -27 -8
-51 -13 -53 -12 -5 6 23 69 88 200 227 458 562 760 904 814 17 3 31 6 32 7 8
7 177 4 228 -5z m-840 -131 c-144 -128 -231 -236 -383 -473 -30 -47 -150 -298
-185 -385 l-38 -96 -81 -29 c-179 -63 -470 -224 -623 -343 -95 -74 -207 -181
-274 -262 l-21 -25 14 45 c192 658 715 1242 1357 1516 56 24 276 103 288 104
3 0 -22 -24 -54 -52z m979 -892 c146 -11 200 -16 231 -20 17 -3 53 -8 80 -11
134 -18 330 -59 504 -108 134 -37 121 -19 181 -249 47 -185 94 -447 106 -598
31 -386 21 -702 -31 -1025 -23 -147 -25 -154 -66 -315 -64 -254 -58 -241 -104
-260 -44 -18 -296 -86 -359 -96 -21 -3 -48 -8 -60 -10 -11 -2 -37 -7 -56 -10
-19 -2 -57 -9 -85 -14 -46 -8 -69 -11 -195 -24 -241 -25 -596 -25 -820 -1 -25
3 -63 7 -85 10 -140 15 -335 52 -500 96 -168 44 -198 55 -206 70 -27 51 -105
363 -124 496 -3 21 -10 61 -15 88 -5 28 -12 77 -15 110 -4 33 -8 74 -10 90
-15 120 -22 422 -15 590 4 89 -4 114 -43 130 -45 19 -83 3 -97 -41 -19 -56
-15 -557 4 -674 3 -14 7 -56 10 -95 10 -126 70 -442 111 -578 8 -28 13 -52 12
-54 -11 -11 -289 129 -404 203 -348 224 -550 484 -608 779 -15 78 -13 243 4
315 46 196 157 379 330 541 165 157 341 269 614 394 33 14 60 25 62 23 2 -2
-7 -48 -21 -103 -25 -98 -29 -112 -39 -157 -27 -118 -56 -322 -50 -345 3 -15
19 -30 40 -39 31 -13 39 -13 64 1 34 17 40 33 57 150 18 136 62 327 105 467
l29 96 78 26 c108 35 244 68 417 101 41 7 149 23 215 30 30 3 69 8 85 10 17 2
82 7 145 10 63 4 116 8 117 9 5 4 334 -3 407 -8z m1198 -278 c172 -76 343
-177 478 -281 89 -68 237 -218 293 -298 55 -77 129 -232 147 -304 6 -27 14
-59 17 -70 12 -46 10 -236 -2 -296 -63 -296 -260 -548 -606 -772 -109 -71
-394 -215 -405 -204 -2 2 4 27 12 57 34 120 80 346 98 480 21 157 25 198 33
345 15 292 5 553 -32 825 -26 188 -83 460 -111 534 -8 22 -5 21 78 -16z
m-3749 -1790 c36 -55 202 -208 307 -284 152 -110 355 -220 540 -294 58 -23
110 -47 117 -54 6 -6 28 -54 48 -106 46 -117 148 -319 211 -420 103 -161 270
-357 384 -449 l25 -20 -50 15 c-375 111 -739 334 -1025 630 -257 265 -434 555
-559 917 -29 85 -29 110 2 65z m1309 -727 c136 -34 365 -75 473 -86 39 -4 78
-9 88 -11 45 -8 296 -18 437 -17 370 2 674 40 1010 126 52 14 96 23 98 22 4
-4 -75 -179 -106 -235 -14 -25 -34 -61 -45 -80 -150 -270 -368 -496 -582 -606
-149 -77 -267 -105 -425 -100 -137 5 -238 33 -373 103 -261 137 -513 437 -682
813 -50 112 -51 114 -30 107 8 -4 69 -20 137 -36z"/>
<path d="M2537 3534 c-1 -1 -33 -4 -72 -7 -315 -27 -599 -215 -763 -507 -34
-61 -88 -215 -97 -276 -3 -21 -8 -45 -11 -53 -7 -20 -6 -220 1 -266 20 -126
67 -256 132 -368 53 -88 196 -243 276 -296 265 -179 598 -221 892 -114 329
121 569 413 626 761 11 68 13 237 4 282 -22 113 -30 143 -52 203 -122 339
-437 591 -793 632 -48 6 -140 12 -143 9z m73 -155 c163 -6 328 -70 465 -179
381 -304 412 -876 66 -1220 -114 -113 -283 -206 -411 -225 -20 -3 -47 -8 -60
-10 -67 -14 -218 -5 -305 16 -489 123 -757 651 -564 1115 54 129 133 234 247
325 120 96 271 160 419 175 32 4 60 8 62 10 2 2 7 2 10 0 4 -3 36 -6 71 -7z"/>
<path d="M2290 3022 c-19 -11 -44 -31 -55 -46 -19 -26 -20 -43 -23 -424 -3
-444 -2 -452 66 -494 57 -35 105 -29 197 29 374 232 549 348 566 377 25 40 24
102 -1 144 -20 33 -41 48 -335 234 -333 211 -345 217 -415 180z m293 -282
c109 -69 223 -141 253 -160 31 -19 57 -38 58 -42 1 -7 -492 -324 -521 -335
-11 -4 -13 53 -13 336 1 275 3 340 14 334 7 -5 101 -64 209 -133z"/>
</g>
</svg>
